<svg xmlns="http://www.w3.org/2000/svg" style="display: none;">
  <defs>
    <symbol id="katakana-project" viewBox="0 0 751 136">
      <text x="50%" y="60%" font-size="64" font-weight="bold" text-anchor="middle" 
            font-family="Noto Sans Bengali, Arial, sans-serif" fill="#00E6E6" stroke="black" 
            stroke-width="1">
        মাহদীন আহমেদ খান
      </text>
    </symbol>
    <symbol id="katakana-profile" viewBox="0 0 136 766">
      <path fill="blue" transform="translate(0, 20)" d="M33 651.3c-.2-9-7.2-16.1-16.3-16.1-9 0-16.3 7.2-16.3 16.2A16 16 0 0 0 16 667.6V741c0 14.7-.3 18.7-1.2 24.2h26c-.6-5-.8-8.5-.9-23.8v-60.2c33.6 8.2 59 34.2 71 72.5 9-9.4 14.5-13.4 24.2-18.2-20.5-45.8-49.5-70.8-95.8-82.6l-3.7-.9-1.5-.4-.5-.2-.6-.1Zm-24.5.1c0-4.4 3.8-8.2 8.2-8.2a8.2 8.2 0 0 1 0 16.4 8.3 8.3 0 0 1-8.2-8.2Zm111-104.5h9.7v-26c-5.8.7-12.7 1-23.8 1h-73c-6.8 0-12-.2-17-.5.6 6.8.6 9 .6 17.9v77.6c0 9.5-.1 12.4-.6 17.4 6-.4 10.4-.6 16.6-.6h74c10.7 0 15.6.3 23.5 1.2v-26.2h-10v-61.8Zm-23 0v61.8H39v-61.8h57.5Z"/>
    </symbol>
  </defs>
</svg>
